<svg width="153" height="106" viewBox="0 0 153 106" fill="none" xmlns="http://www.w3.org/2000/svg">
    <path d="M3.54564 56.5762C1.58744 54.6292 1.58744 51.4724 3.54564 49.5254V49.5254C5.50385 47.5784 8.67872 47.5784 10.6369 49.5254L56.7303 95.3555C58.6885 97.3026 58.6885 100.459 56.7303 102.406V102.406C54.7721 104.353 51.5972 104.353 49.639 102.406L3.54564 56.5762Z" fill="#FFFFFF"/>
    <path d="M49.8025 3.52538C51.7607 1.57836 54.9355 1.57836 56.8938 3.52538V3.52538C58.852 5.47241 58.852 8.62915 56.8938 10.5762L10.8004 56.4063C8.8422 58.3534 5.66733 58.3534 3.70912 56.4063V56.4063C1.75092 54.4593 1.75092 51.3026 3.70912 49.3555L49.8025 3.52538Z" fill="#FFFFFF"/>
    <path d="M8 58C5.23858 58 3 55.7614 3 53V53C3 50.2386 5.23858 48 8 48L148 48C150.761 48 153 50.2386 153 53V53C153 55.7614 150.761 58 148 58L8 58Z" fill="#FFFFFF"/>
</svg>