<?xml version="1.0" encoding="UTF-8"?>
<svg width="880px" height="620px" viewBox="0 0 880 620" version="1.1" xmlns="http://www.w3.org/2000/svg" xmlns:xlink="http://www.w3.org/1999/xlink">
    <title>Group</title>
    <g id="Page-1" stroke="none" stroke-width="1" fill="none" fill-rule="evenodd">
        <g id="Group">
            <rect id="Rectangle-Copy-14" fill="#FFFFFF" transform="translate(440.000000, 310.000000) rotate(180.000000) translate(-440.000000, -310.000000) " x="0" y="0" width="880" height="620"></rect>
            <path d="M847.499125,86.4756716 C858.846174,86.4756716 869.770818,88.2842 880.000534,91.6287323 L880.000534,290.322611 C869.770818,293.667143 858.846174,295.475672 847.499125,295.475672 C789.785369,295.475672 742.999125,248.689428 742.999125,190.975672 C742.999125,133.261915 789.785369,86.4756716 847.499125,86.4756716 Z" id="Combined-Shape" fill="#343434"></path>
            <path d="M335.21162,0 L849.443486,218.215868 C866.220785,225.335372 874.049974,244.707558 866.93047,261.484856 C865.142865,265.697395 862.498665,269.4921 859.165845,272.627911 L489.96862,620 L251.86862,620 L27.3234497,284.418776 C-3.38984634,238.518036 8.9220092,176.410089 54.8227488,145.696793 C55.1756648,145.460648 55.5300814,145.226754 55.885977,144.995124 L278.66862,0 L335.21162,0 Z" id="Combined-Shape" fill="#9DFFCF"></path>
            <circle id="Oval-Copy-8" fill="#DADADA" transform="translate(284.499125, 507.975672) rotate(180.000000) translate(-284.499125, -507.975672) " cx="284.499125" cy="507.975672" r="29.5"></circle>
        </g>
    </g>
</svg>