<?xml version="1.0" encoding="UTF-8"?>
<svg width="1601px" height="900px" viewBox="0 0 1601 900" version="1.1" xmlns="http://www.w3.org/2000/svg" xmlns:xlink="http://www.w3.org/1999/xlink">
    <title>Slice 1 Copy 2</title>
    <g id="Page-1" stroke="none" stroke-width="1" fill="none" fill-rule="evenodd">
        <rect id="Rectangle-Copy-14" fill="#FFFFFF" transform="translate(801.000000, 450.000000) rotate(180.000000) translate(-801.000000, -450.000000) " x="1" y="0" width="1600" height="900"></rect>
        <circle id="Oval-Copy-12" fill="#343434" transform="translate(715.500000, 225.500000) rotate(180.000000) translate(-715.500000, -225.500000) " cx="715.5" cy="225.5" r="104.5"></circle>
        <circle id="Oval-Copy-11" fill="#343434" transform="translate(1349.000000, 740.000000) rotate(180.000000) translate(-1349.000000, -740.000000) " cx="1349" cy="740" r="28"></circle>
        <circle id="Oval-Copy-13" fill="#343434" transform="translate(369.000000, 871.000000) rotate(180.000000) translate(-369.000000, -871.000000) " cx="369" cy="871" r="77"></circle>
        <circle id="Oval-Copy-10" fill="#DADADA" transform="translate(685.500000, 823.500000) rotate(180.000000) translate(-685.500000, -823.500000) " cx="685.5" cy="823.5" r="29.5"></circle>
        <circle id="Oval-Copy-14" fill="#DADADA" transform="translate(1243.500000, 360.500000) rotate(180.000000) translate(-1243.500000, -360.500000) " cx="1243.5" cy="360.5" r="48.5"></circle>
        <path d="M1505.44161,246.840846 C1537.82045,250.724439 1569.67345,268.225023 1601.0006,299.342596 L1601.00075,720.038506 C1590.41794,724.162427 1578.5178,725.227546 1566.62914,722.413682 C1565.66029,722.18437 1564.6975,721.930148 1563.74174,721.651271 C1430.14963,682.671182 1326.54959,671.067707 1252.94161,686.840846 C1172.75089,704.024571 1175.79765,586.630903 1262.0819,334.659842 L1264.72206,326.983162 C1271.30295,307.929308 1285.67302,292.571044 1304.24778,284.739329 C1380.60559,252.544437 1447.6702,239.911609 1505.44161,246.840846 Z" id="Combined-Shape" fill="#9DFFCF"></path>
        <circle id="Oval-Copy-9" fill="#343434" transform="translate(1493.500000, 169.500000) rotate(180.000000) translate(-1493.500000, -169.500000) " cx="1493.5" cy="169.5" r="48.5"></circle>
        <path d="M558.821252,43.7798017 C561.011762,46.1079312 563.006052,48.6131688 564.783748,51.2699184 L737.561875,309.485328 L737.561875,657.029328 L588.76007,753.87581 C576.767759,761.680844 561.678663,763.009387 548.507015,757.419953 L21.1183888,533.62079 C4.34109019,526.501286 -3.48809933,507.1291 3.63140461,490.351802 C5.41900951,486.139263 8.06320942,482.344558 11.3960301,479.208747 L476.834881,41.2828205 C500.164314,19.3324315 536.870863,20.4503681 558.821252,43.7798017 Z" id="Combined-Shape-Copy-6" fill="#9DFFCF" transform="translate(369.281375, 393.180493) rotate(180.000000) translate(-369.281375, -393.180493) "></path>
        <circle id="Oval-Copy-8" fill="#DADADA" transform="translate(152.500000, 542.500000) rotate(180.000000) translate(-152.500000, -542.500000) " cx="152.5" cy="542.5" r="29.5"></circle>
        <path d="M1600.99976,-0.002 L1600.99976,58.556 L1578.82686,124.817856 C1575.85704,133.692698 1567.13002,139.321484 1557.82029,138.366761 L1313.81546,113.343815 C1305.16486,112.456686 1296.77484,109.868795 1289.12756,105.728859 L1207.8558,61.7315228 C1191.36202,52.8024395 1185.22962,32.1931375 1194.1587,15.6993584 C1198.13186,8.36015274 1204.61654,2.82402466 1212.2866,-0.00102120785 L1600.99976,-0.002 Z" id="Combined-Shape" fill="#9DFFCF"></path>
        <path d="M1020.13873,774.783275 L1352.49402,866.259558 C1364.74114,869.630414 1371.93678,882.291289 1368.56592,894.538415 C1368.03376,896.471893 1367.25102,898.327471 1366.2376,900.057943 C1351.19914,925.73713 1324.57535,942.051149 1286.36624,949 C1236.12172,958.137654 1095.8839,963.804321 865.652772,966 C760.708001,941.317859 720.470432,910.319359 744.940065,873.004498 C767.908981,837.97815 842.905341,804.990109 969.929145,774.040374 C986.456442,770.013448 1003.73781,770.269143 1020.13873,774.783275 Z" id="Polygon" fill="#9DFFCF"></path>
    </g>
</svg>