<svg width="1600" height="900" viewBox="0 0 1600 900" fill="none" xmlns="http://www.w3.org/2000/svg">
    <path d="M0 900L1600 900V0L0 0V900Z" fill="white"/>
    <path fill-rule="evenodd" clip-rule="evenodd" d="M416.326 0H555.674C589.624 22.5734 612 61.1736 612 105C612 174.588 555.588 231 486 231C416.412 231 360 174.588 360 105C360 61.1736 382.376 22.5734 416.326 0Z" fill="#343434"/>
    <path d="M1369 744C1353.54 744 1341 756.536 1341 772C1341 787.464 1353.54 800 1369 800C1384.46 800 1397 787.464 1397 772C1397 756.536 1384.46 744 1369 744Z" fill="#343434"/>
    <path d="M634 708C613.013 708 596 725.013 596 746C596 766.987 613.013 784 634 784C654.987 784 672 766.987 672 746C672 725.013 654.987 708 634 708Z" fill="#DADADA"/>
    <path fill-rule="evenodd" clip-rule="evenodd" d="M1504.44 246.841C1536.82 250.724 1568.67 268.225 1600 299.343L1600 720.039C1589.42 724.162 1577.52 725.228 1565.63 722.414C1564.66 722.184 1563.7 721.93 1562.74 721.651C1429.15 682.671 1325.55 671.068 1251.94 686.841C1171.75 704.025 1174.8 586.631 1261.08 334.66L1263.72 326.983C1270.3 307.929 1284.67 292.571 1303.25 284.739C1379.61 252.544 1446.67 239.912 1504.44 246.841Z" fill="#9DFFCF"/>
    <path fill-rule="evenodd" clip-rule="evenodd" d="M1600 36.4095V143.59C1589.94 150.173 1577.92 154 1565 154C1529.65 154 1501 125.346 1501 90C1501 54.6538 1529.65 26 1565 26C1577.92 26 1589.94 29.8272 1600 36.4095Z" fill="#DADADA"/>
    <path fill-rule="evenodd" clip-rule="evenodd" d="M117 861C117 818.474 151.474 784 194 784C236.526 784 271 818.474 271 861C271 875.23 267.14 888.559 260.41 899.996H127.59C120.86 888.559 117 875.23 117 861Z" fill="#343434"/>
    <path fill-rule="evenodd" clip-rule="evenodd" d="M178.741 743.057C176.55 740.729 174.556 738.223 172.778 735.567L0 477.351L0 129.807L148.802 32.9608C160.794 25.1558 175.883 23.8272 189.055 29.4166L716.444 253.216C733.221 260.335 741.05 279.707 733.931 296.485C732.143 300.697 729.499 304.492 726.166 307.628L260.727 745.554C237.398 767.504 200.691 766.386 178.741 743.057Z" fill="#9DFFCF"/>
    <path d="M50.5 495C34.2076 495 21 508.208 21 524.5C21 540.792 34.2076 554 50.5 554C66.7924 554 80 540.792 80 524.5C80 508.208 66.7924 495 50.5 495Z" fill="#DADADA"/>
    <path d="M1085 125C1055.73 125 1032 148.729 1032 178C1032 207.271 1055.73 231 1085 231C1114.27 231 1138 207.271 1138 178C1138 148.729 1114.27 125 1085 125Z" fill="#343434"/>
    <path fill-rule="evenodd" clip-rule="evenodd" d="M1252.5 0C1252.5 0 1331.5 75.4984 1332 85.4984C1335.56 156.76 1244 126.717 1200 166.498C1174 190.005 1032 130.688 1007 116.998C982 103.308 918 0 918 0C918 0 1140.94 6.24706e-05 1252.5 0Z" fill="#9DFFCF"/>
    <path fill-rule="evenodd" clip-rule="evenodd" d="M874.139 775.585L1206.49 867.062C1218.74 870.432 1225.94 883.093 1222.57 895.34C1222.12 896.957 1221.5 898.52 1220.72 900H592.587C590.85 891.645 592.968 882.914 598.94 873.807C621.909 838.78 696.905 805.792 823.929 774.842C840.456 770.815 857.738 771.071 874.139 775.585Z" fill="#9DFFCF"/>
    <path d="M1242.5 368C1215.71 368 1194 389.714 1194 416.5C1194 443.286 1215.71 465 1242.5 465C1269.29 465 1291 443.286 1291 416.5C1291 389.714 1269.29 368 1242.5 368Z" fill="#DADADA"/>
</svg>